<svg xmlns="http://www.w3.org/2000/svg" viewBox="0 0 100 118.69"><defs><style>.cls-1{fill:#71e2df;}.cls-2{fill:#15c2c4;}.cls-3{fill:#15ada9;}.cls-4{fill:#fff;}.cls-5{fill:#a5efeb;}</style></defs><g id="レイヤー_2" data-name="レイヤー 2"><g id="レイヤー_1-2" data-name="レイヤー 1"><polygon class="cls-1" points="49.85 38.76 0.01 17.61 49.96 0 99.45 17.66 49.85 38.76"/><polygon class="cls-2" points="49.97 118.69 0.08 97.62 0.22 84.36 49.96 105.4 49.97 118.69"/><polygon class="cls-2" points="97.59 27.06 99.83 17.59 49.96 0 49.87 38.76 52 37.85 49.94 76.1 98.97 93.5 99.57 39.79 97.59 27.06"/><polygon class="cls-3" points="60.83 94.76 32.54 83.94 31.9 16.96 60.7 29.77 60.83 94.76"/><polygon class="cls-4" points="49.96 24.16 28.14 15.1 49.96 8.03 70.82 15.33 49.96 24.16"/><polygon class="cls-5" points="70.82 15.33 71.25 90.15 60.88 94.76 60.55 30.72 49.99 35.21 49.96 24.16 70.82 15.33"/><polygon class="cls-2" points="49.96 24.16 49.99 35.21 28.54 26.36 28.14 15.1 49.96 24.16"/><path class="cls-1" d="M99.81,17.59,50,38.73V76.19L87.42,59.46l.16,29.93L50,105.4v13.29l50-21.83ZM62.19,59.91V45L87.82,34.08l.06,15Z"/><polygon class="cls-2" points="49.96 38.73 49.94 76.19 0.02 53.97 0 17.61 49.96 38.73"/></g></g></svg>